# xmcd
#
# Track frame offsets: 
#        150
#        20612
#        42375
#        63860
#        83690
#        97917
#        121357
#        143722
#        166117
#        187955
#        206352
#        228610
#        247620
#
# Disc length: 3464 seconds
#
# Revision: 2
# Processed by: cddbd v1.5.2PL0 Copyright (c) Steve Scherf et al.
# Submitted via: ExactAudioCopyFreeDBPlugin 1.0
#
DISCID=9a0d860d
DTITLE=Whitney Houston - The Bodyguard
DYEAR=1900
DGENRE=R&B
TTITLE0=I will always love you
TTITLE1=I have nothing
TTITLE2=I am every woman
TTITLE3=run to you
TTITLE4=Queen of the night
TTITLE5=Jesus loves me
TTITLE6=Even if my heart would break (Henny G and Aaron Neville)
TTITLE7=Someday ( I'm going back)( Lisa Stansfield)
TTITLE8=It's gonna be a lovely day ( The soul system)
TTITLE9=( What's so funny 'bout) Peace, love and understanding ( Curti
TTITLE9=s Stingers)
TTITLE10=Waiting for you
TTITLE11=Trust in me ( Joe Cocker and Sass Jordan)
TTITLE12=These from the bodyguard
EXTD=
EXTT0=
EXTT1=
EXTT2=
EXTT3=
EXTT4=
EXTT5=
EXTT6=
EXTT7=
EXTT8=
EXTT9=
EXTT10=
EXTT11=
EXTT12=
PLAYORDER=
